<svg xmlns="http://www.w3.org/2000/svg" viewBox="0 0 207.84 204.96">
    <defs>
        <style>
            .cls-1{fill:#ffffff;}.cls-2{fill:none;stroke:#ffffff;stroke-miterlimit:10;stroke-width:6px;}</style>
    </defs>
    <title>Mobile</title>
    <g id="Layer_2" data-name="Layer 2">
        <g id="Layer_1-2" data-name="Layer 1">
            <path class="cls-1"
                d="M12,13.37H9.93V11.26a2.61,2.61,0,0,0-5.21,0v2.12H2.61a2.61,2.61,0,1,0,0,5.21H4.72V20.7a2.61,2.61,0,0,0,5.21,0V18.58H12a2.61,2.61,0,0,0,0-5.21Z" />
            <path class="cls-1"
                d="M19.37,138H17.26v-2.12a2.61,2.61,0,0,0-5.21,0V138H9.93a2.61,2.61,0,1,0,0,5.21H12v2.12a2.61,2.61,0,0,0,5.21,0v-2.12h2.12a2.61,2.61,0,0,0,0-5.21Z" />
            <path class="cls-1"
                d="M204.6,160.61H202V158a3.24,3.24,0,0,0-6.48,0v2.63h-2.63a3.24,3.24,0,1,0,0,6.48h2.63v2.63a3.24,3.24,0,0,0,6.48,0v-2.63h2.63a3.24,3.24,0,0,0,0-6.48Z" />
            <path class="cls-2"
                d="M166.71,25.71A23.63,23.63,0,0,0,143.1,3H67A23.63,23.63,0,0,0,43.33,26.63v151.7A23.63,23.63,0,0,0,67,202H143.1a23.63,23.63,0,0,0,23.63-23.63V51" />
            <polygon class="cls-2"
                points="113.02 4 97.05 4 71.03 4 91.73 19.46 97.05 19.46 113.02 19.46 118.34 19.46 139.04 4 113.02 4" />
            <rect class="cls-2" x="64.05" y="73.37" width="17.41" height="25.63" rx="3.85" ry="3.85" />
            <rect class="cls-2" x="128.61" y="73.37" width="17.41" height="25.63" rx="3.85"
                ry="3.85" />
            <rect class="cls-2" x="81.88" y="81.94" width="46.73" height="11.05" />
            <line class="cls-2" x1="43.44" y1="174.63" x2="166.63" y2="174.63" />
            <circle class="cls-1" cx="105.03" cy="188.49" r="5.64" />
            <line class="cls-2" x1="64.05" y1="140.63" x2="146.02" y2="140.63" />
            <rect class="cls-1" x="69.42" y="130.13" width="6.68" height="21" rx="3.34" ry="3.34" />
            <circle class="cls-1" cx="166.73" cy="39.41" r="2.9" />
            <line class="cls-2" x1="43.44" y1="37.41" x2="99.39" y2="37.41" />
            <line class="cls-2" x1="43.44" y1="53.96" x2="78.84" y2="53.96" />
            <line class="cls-2" x1="83.84" y1="53.96" x2="91.18" y2="53.96" />
        </g>
    </g>
</svg>